<svg width="326" height="675" viewBox="0 0 326 675" fill="none" xmlns="http://www.w3.org/2000/svg">
<path d="M199.181 519.759L184.22 507.169C190.216 499.888 194.354 490.898 194.383 481.539C194.418 472.267 190.835 467.972 186.118 467.955C179.166 467.931 177.471 473.662 173.61 482.784L168.198 495.344C164.1 506.029 155.863 515.765 141.815 515.718C125.823 515.661 113.089 501.213 113.165 480.237C113.204 468.627 117.598 456.906 125.916 448.223L139.645 459.272C134.742 466.056 132.069 472.064 132.034 481.499C132.01 488.694 134.974 493.59 140.611 493.608C146.417 493.625 148.564 487.166 152.066 477.916L157.114 466.12C161.9 453.496 169.807 445.543 183.426 445.59C199.477 445.641 213.334 459.151 213.246 483.05C213.206 496.097 208.385 509.554 199.181 519.759Z" fill="#FD4400"/>
<path d="M133.503 408.876L133.405 437.81L115.085 437.747L115.357 358.021L133.677 358.086L133.579 387.026L211.799 387.292L211.724 409.142L133.503 408.876Z" fill="#FD4400"/>
<path d="M115.415 341.513L115.531 307.191C115.6 286.741 122.772 269.938 145.739 270.019C167.925 270.094 177.412 286.949 177.343 307.404L177.302 319.837L212.031 319.952L211.955 341.844L115.415 341.513ZM159.995 309.124C160.036 297.646 155.116 291.47 145.664 291.441C136.131 291.406 132.907 297.553 132.866 309.031L132.831 319.686L159.96 319.78L159.995 309.124ZM157.622 296.227L212.216 265.609L212.129 290.052L171.572 311.398L157.622 296.227Z" fill="#FD4400"/>
<path d="M115.728 249.211L115.948 185.217L134.267 185.281L134.122 227.424L153.484 227.494L153.605 191.688L171.924 191.746L171.803 227.552L194.024 227.627L194.174 184.002L212.493 184.065L212.268 249.54L115.728 249.211Z" fill="#FD4400"/>
<path d="M116.035 160.305L116.254 96.3176L134.574 96.3813L134.429 138.525L153.791 138.588L153.912 102.782L172.231 102.846L172.11 138.652L194.33 138.727L194.481 95.1023L212.8 95.1658L212.575 160.635L116.035 160.305Z" fill="#FD4400"/>
<path d="M134.725 51.6326L134.626 80.5732L116.306 80.5098L116.579 0.778076L134.898 0.842773L134.8 29.783L213.02 30.0491L212.946 51.8987L134.725 51.6326Z" fill="#FD4400"/>
<path d="M230.159 515.507V492.744C230.159 473.394 237.557 462.583 252.922 462.583C262.883 462.583 270.565 468.13 273.411 479.225H273.978C275.973 465.284 283.656 456.607 296.74 456.607C314.667 456.607 324.056 469.125 324.056 491.038V515.507H230.159ZM271.988 495.589C271.988 475.1 265.445 467.135 252.922 467.135C239.553 467.135 234.145 475.957 234.145 494.734V510.955H271.988V495.589ZM320.076 492.744C320.076 472.538 312.961 461.16 297.024 461.16C282.8 461.16 275.973 472.538 275.973 492.744V510.955H320.076V492.744Z" fill="white"/>
<path d="M230.159 434.112V379.482H234.145V429.559H271.988V387.446H275.973V429.559H320.076V378.058H324.056V434.112H230.159Z" fill="white"/>
<path d="M234.145 332.794V366.084H230.159V294.95H234.145V328.241H324.056V332.794H234.145Z" fill="white"/>
<path d="M311.538 293.516L308.408 290.386C316.374 283.277 321.499 272.749 321.499 260.797C321.499 244.861 313.244 234.622 301.292 234.622C288.775 234.622 284.789 243.299 280.526 253.399L273.978 267.913C270.42 276.446 264.872 288.397 250.931 288.397C237.557 288.397 228.452 276.446 228.452 260.514C228.452 248.563 233.716 239.175 239.553 233.483L242.683 236.328C236.706 242.021 232.722 250.269 232.722 260.514C232.722 274.455 239.836 283.844 250.648 283.844C262.316 283.844 266.724 273.177 269.708 265.917L276.256 251.41C280.948 240.308 286.495 230.069 301.009 230.069C315.234 230.069 325.762 242.304 325.762 260.797C325.762 275.305 319.786 286.124 311.538 293.516Z" fill="white"/>
<path d="M0 485.053L0.0874034 458.862L96.7258 429.128L96.6443 452.292L47.7322 464.586C38.086 467 26.7673 469.906 16.5719 472.192L16.5689 472.782C26.7474 475.179 38.0483 477.899 47.6766 480.376L96.5053 493.093L96.4298 515.452L0 485.053ZM56.5212 495.414L56.6771 449.225L73.6999 449.283L73.5381 495.471L56.5212 495.414Z" fill="#0065FA"/>
<path d="M0.249268 411.706L0.324771 389.897L78.5399 390.163L78.6839 347.191L97.0039 347.255L96.7834 412.036L0.249268 411.706Z" fill="#0065FA"/>
<path d="M0.553223 322.8L0.628727 300.991L78.8458 301.257L78.9908 258.286L97.3108 258.349L97.0903 323.13L0.553223 322.8Z" fill="#0065FA"/>
<rect y="675" width="135.403" height="324.062" transform="rotate(-90 0 675)" fill="white"/>
<path d="M290.966 607.388C290.966 620.697 280.177 631.486 266.868 631.486C253.558 631.486 242.768 620.697 242.768 607.388C242.768 594.078 253.558 583.289 266.868 583.289C280.177 583.289 290.966 594.078 290.966 607.388Z" fill="black"/>
<path d="M301.822 607.387C301.822 626.693 286.172 642.342 266.867 642.342C247.562 642.342 231.912 626.693 231.912 607.387C231.912 588.082 247.562 572.433 266.867 572.433C286.172 572.433 301.822 588.082 301.822 607.387Z" stroke="black" stroke-width="1.474"/>
</svg>
