<svg width="120" height="58" viewBox="0 0 120 58" fill="none" xmlns="http://www.w3.org/2000/svg">
<path d="M27.5578 35.4439L29.7926 32.7879C31.0851 33.8523 32.6809 34.587 34.3423 34.5921C35.9884 34.5983 36.7507 33.9623 36.7537 33.1248C36.758 31.8908 35.7407 31.5899 34.1214 30.9045L31.8918 29.9438C29.995 29.2164 28.2668 27.7542 28.2751 25.2604C28.2853 22.4216 30.8499 20.1611 34.5735 20.1745C36.6346 20.1816 38.7152 20.9616 40.2565 22.438L38.2951 24.8752C37.0909 24.0049 36.0243 23.5303 34.3495 23.5241C33.0723 23.5199 32.2031 24.046 32.2 25.0467C32.1969 26.0773 33.3435 26.4585 34.9855 27.0801L37.0796 27.9762C39.3205 28.8258 40.7322 30.2294 40.7239 32.647C40.7148 35.4962 38.3166 37.9561 34.0742 37.9406C31.7581 37.9334 29.3693 37.0776 27.5578 35.4439Z" fill="#FD4400"/>
<path d="M47.2413 23.7849L42.105 23.7675L42.1163 20.5154L56.2688 20.5637L56.2574 23.8158L51.12 23.7983L51.0727 37.6837L47.194 37.6704L47.2413 23.7849Z" fill="#FD4400"/>
<path d="M59.1992 20.574L65.2921 20.5945C68.9221 20.6068 71.905 21.88 71.8905 25.957C71.8773 29.8953 68.8853 31.5795 65.2541 31.5671L63.0471 31.5599L63.0266 37.7248L59.1405 37.7114L59.1992 20.574ZM64.9489 28.4876C66.9864 28.4949 68.0827 27.6216 68.0879 25.9436C68.094 24.2514 67.0028 23.6791 64.9654 23.6718L63.0739 23.6657L63.0573 28.4815L64.9489 28.4876ZM67.2382 28.0664L72.6735 37.7576L68.3345 37.7423L64.5452 30.5427L67.2382 28.0664Z" fill="#FD4400"/>
<path d="M75.5844 20.6295L86.9443 20.6685L86.933 23.9206L79.4518 23.8949L79.4395 27.3319L85.7956 27.3534L85.7853 30.6053L79.4293 30.5838L79.4159 34.5283L87.16 34.5551L87.1487 37.807L75.5259 37.7669L75.5844 20.6295Z" fill="#FD4400"/>
<path d="M91.3666 20.684L102.725 20.723L102.714 23.9751L95.2329 23.9493L95.2216 27.3864L101.578 27.4079L101.566 30.6598L95.2103 30.6383L95.197 34.5827L102.941 34.6095L102.93 37.8614L91.308 37.8214L91.3666 20.684Z" fill="#FD4400"/>
<path d="M110.658 24.0018L105.52 23.9843L105.532 20.7322L119.685 20.7805L119.674 24.0326L114.536 24.0152L114.489 37.9005L110.61 37.8873L110.658 24.0018Z" fill="#FD4400"/>
<path d="M28.3126 40.9429H32.3533C35.7883 40.9429 37.7074 42.2562 37.7074 44.9836C37.7074 46.7518 36.7227 48.1156 34.7531 48.6207V48.7214C37.2279 49.0756 38.7683 50.4394 38.7683 52.7621C38.7683 55.9444 36.546 57.6111 32.6562 57.6111H28.3126V40.9429ZM31.8482 48.3683C35.4853 48.3683 36.8994 47.2067 36.8994 44.9836C36.8994 42.6104 35.3334 41.6504 32 41.6504H29.1207V48.3683H31.8482ZM32.3533 56.9046C35.9402 56.9046 37.9601 55.6415 37.9601 52.8126C37.9601 50.2874 35.9402 49.0756 32.3533 49.0756H29.1207V56.9046H32.3533Z" fill="white"/>
<path d="M42.7616 40.9429H52.4593V41.6504H43.5698V48.3683H51.0454V49.0756H43.5698V56.9046H52.7119V57.6111H42.7616V40.9429Z" fill="white"/>
<path d="M60.7471 41.6504H54.8374V40.9428H67.4649V41.6504H61.5553V57.611H60.7471V41.6504Z" fill="white"/>
<path d="M67.7195 55.3889L68.2751 54.8333C69.5371 56.2473 71.406 57.1571 73.5276 57.1571C76.3565 57.1571 78.1741 55.6918 78.1741 53.5702C78.1741 51.3481 76.6339 50.6406 74.8409 49.8838L72.2645 48.7214C70.7498 48.0899 68.6282 47.105 68.6282 44.6303C68.6282 42.2562 70.7498 40.6398 73.5778 40.6398C75.6994 40.6398 77.3659 41.5742 78.3763 42.6104L77.8712 43.166C76.8608 42.1051 75.3965 41.3978 73.5778 41.3978C71.1031 41.3978 69.4364 42.6607 69.4364 44.58C69.4364 46.6512 71.33 47.4336 72.6187 47.9635L75.1941 49.1259C77.1647 49.9588 78.9823 50.9435 78.9823 53.5199C78.9823 56.0451 76.8105 57.914 73.5276 57.914C70.9522 57.914 69.0318 56.8531 67.7195 55.3889Z" fill="white"/>
<path d="M33.7185 0.0859871L38.3679 0.101503L43.6462 17.2564L39.5342 17.2419L37.3518 8.55921C36.9234 6.84687 36.4075 4.83761 36.0016 3.02776L35.8969 3.02723C35.4714 4.83408 34.9885 6.84017 34.5488 8.54934L32.2915 17.2172L28.3223 17.2038L33.7185 0.0859871ZM31.8794 10.1194L40.0787 10.1471L40.0684 13.1689L31.8692 13.1402L31.8794 10.1194Z" fill="#0065FA"/>
<path d="M46.7389 0.130222L50.6103 0.143625L50.563 14.0281L58.1913 14.0536L58.18 17.3057L46.6803 17.2666L46.7389 0.130222Z" fill="#0065FA"/>
<path d="M62.521 0.184174L66.3925 0.197577L66.3452 14.0824L73.9734 14.1081L73.9621 17.3602L62.4625 17.321L62.521 0.184174Z" fill="#0065FA"/>
<rect y="0.0859871" width="24.0362" height="57.5262" fill="white"/>
<path d="M12.0023 51.7371C9.63971 51.7371 7.72443 49.8218 7.72443 47.4592C7.72443 45.0966 9.63971 43.1812 12.0023 43.1812C14.3649 43.1812 16.2802 45.0966 16.2802 47.4592C16.2802 49.8218 14.3649 51.7371 12.0023 51.7371Z" fill="black"/>
<path d="M12.0023 53.6642C8.57531 53.6642 5.79733 50.886 5.79733 47.4592C5.79733 44.0322 8.57531 41.2541 12.0023 41.2541C15.4293 41.2541 18.2073 44.0322 18.2073 47.4592C18.2073 50.886 15.4293 53.6642 12.0023 53.6642Z" stroke="black" stroke-width="1.474"/>
</svg>
